<svg width="417" height="230" viewBox="0 0 417 230" fill="none" xmlns="http://www.w3.org/2000/svg">
<g filter="url(#filter0_i_160_2)">
<path d="M93.992 136.338C93.4598 136.373 92.7647 136.017 91.9067 135.272C91.1102 134.455 90.3704 133.502 89.6871 132.411C89.0653 131.249 88.7146 130.136 88.635 129.072C88.5305 127.676 88.6782 125.629 89.0779 122.93C89.5441 120.228 90.1111 117.084 90.7787 113.5C91.5079 109.845 92.258 106.021 93.0288 102.029C93.8613 97.9666 94.5964 93.9436 95.2342 89.9604C95.9335 85.9063 96.4507 82.098 96.7858 78.5354C97.1873 74.9685 97.2886 71.8554 97.0896 69.1961C97.005 68.066 97.0809 67.2927 97.3171 66.8765C97.6149 66.3894 98.1962 66.1176 99.0611 66.0611C99.5933 66.0263 100.49 66.4019 101.753 67.1879C103.015 67.9739 104.189 68.9327 105.277 70.0641C106.426 71.1247 107.068 72.1183 107.205 73.0446C107.524 74.6271 108.34 77.0456 109.653 80.3001C111.032 83.5503 112.711 87.2151 114.687 91.2948C116.73 95.37 118.873 99.4388 121.116 103.501C124.513 98.8699 127.774 94.2142 130.9 89.534C134.026 84.8537 136.883 80.5919 139.47 76.7486C142.056 72.9052 144.332 69.8171 146.297 67.4841C148.257 65.0847 149.769 63.8502 150.833 63.7806C151.631 63.7285 152.488 64.0065 153.402 64.6148C154.378 65.1523 155.201 65.8668 155.869 66.7585C156.599 67.5792 156.994 68.3885 157.053 69.1863C157.168 70.7153 156.979 73.0993 156.486 76.3382C156.054 79.5063 155.43 83.2214 154.612 87.4836C153.795 91.7458 152.928 96.245 152.012 100.981C151.092 105.651 150.199 110.252 149.335 114.785C148.466 119.251 147.769 123.338 147.245 127.046C146.668 130.959 145.881 132.948 144.883 133.013C143.819 133.082 142.826 132.312 141.903 130.702C140.975 129.026 140.417 126.925 140.228 124.398C140.148 123.335 140.221 121.626 140.446 119.273C140.666 116.854 141.022 114.025 141.515 110.786C142.008 107.547 142.586 104.102 143.249 100.452C143.912 96.8007 144.613 93.2142 145.352 89.692C146.157 86.1655 146.983 82.9048 147.828 79.9101C145.052 83.8995 142.342 87.8845 139.698 91.8651C137.055 95.8458 134.52 99.4854 132.092 102.784C129.66 106.016 127.449 108.632 125.46 110.633C123.47 112.633 121.711 113.683 120.181 113.783C118.784 113.875 117.36 113.166 115.91 111.657C114.522 110.078 113.127 107.965 111.726 105.317C110.324 102.67 108.936 99.754 107.561 96.5704C106.253 93.3824 104.981 90.2254 103.744 87.0996C103.365 91.8675 102.808 96.4801 102.072 100.937C101.336 105.395 100.575 109.52 99.7894 113.312C99.0702 117.1 98.4134 120.383 97.8191 123.161C97.0948 126.883 96.3923 130.002 95.7116 132.518C95.0974 135.03 94.5242 136.303 93.992 136.338ZM166.643 131.591C165.379 131.674 164.569 131.56 164.211 131.249C163.915 130.867 163.74 130.311 163.685 129.58C163.615 128.649 163.712 127.707 163.975 126.755C164.3 125.732 164.535 124.414 164.682 122.801C164.895 121.183 165.657 120.198 166.968 119.845C168.34 119.422 169.758 119.162 171.221 119.066C172.618 118.975 173.726 119.036 174.544 119.25C175.357 119.397 175.821 120.236 175.935 121.765C176.07 123.56 175.657 125.19 174.697 126.656C173.804 128.117 172.622 129.296 171.151 130.194C169.676 131.025 168.173 131.491 166.643 131.591ZM191.664 130.958C190.999 131.002 190.211 130.753 189.302 130.211C188.459 129.665 187.703 128.946 187.035 128.054C186.361 127.096 185.99 126.152 185.92 125.221C185.87 124.556 187.413 119.712 190.548 110.689C188.885 110.797 187.456 110.457 186.26 109.666C185.126 108.805 184.512 107.743 184.417 106.48C184.318 105.15 187.484 103.24 193.916 100.749C194.085 100.337 194.443 99.3111 194.989 97.6721C195.53 95.9666 196.179 93.92 196.936 91.5324C197.76 89.1403 198.604 86.5799 199.47 83.8512C200.335 81.1224 201.175 78.4955 201.989 75.9705C202.802 73.4455 203.505 71.2284 204.098 69.3191C204.752 67.339 205.215 65.9392 205.488 65.1197C206.086 63.2769 207.235 61.6653 208.937 60.2848C210.7 58.8334 212.447 58.0513 214.176 57.9383C215.041 57.8818 215.937 58.6917 216.865 60.368C217.859 62.04 218.824 64.215 219.76 66.8929C220.762 69.5664 221.679 72.4459 222.512 75.5314C223.345 78.6169 224.07 81.6091 224.688 84.5082C225.368 87.3365 225.879 89.708 226.223 91.6229C227.145 91.4291 227.999 91.2397 228.788 91.0545C229.638 90.7986 230.395 90.6489 231.061 90.6054C232.591 90.5054 233.744 90.7307 234.52 91.2812C235.292 91.7652 235.71 92.4394 235.775 93.3036C235.869 94.5668 233.052 96.2206 227.322 98.2651C227.691 100.512 228.01 102.997 228.281 105.718C228.613 108.369 228.904 110.922 229.155 113.377C229.4 115.766 229.585 117.792 229.71 119.454C229.919 122.246 229.937 124.282 229.766 125.563C229.661 126.839 229.388 127.658 228.947 128.021C228.506 128.384 227.92 128.589 227.188 128.637C226.124 128.707 225.25 128.196 224.567 127.105C223.883 126.014 223.354 124.746 222.978 123.3C222.669 121.851 222.409 120.599 222.196 119.544C221.691 116.37 221.189 113.23 220.689 110.122C220.255 107.011 219.791 103.935 219.296 100.894C215.968 101.98 212.773 103.057 209.711 104.126C206.711 105.123 203.582 106.196 200.325 107.344C195.549 123.022 192.662 130.893 191.664 130.958ZM203.301 97.5298C205.58 96.7129 207.932 95.9913 210.359 95.3651C212.847 94.6681 215.404 94 218.03 93.3608C217.004 87.6825 216.032 82.7356 215.115 78.5199C214.198 74.3043 213.366 70.7845 212.62 67.9606C211.415 71.5132 210.027 75.7459 208.456 80.6586C206.885 85.5712 205.167 91.195 203.301 97.5298ZM247.011 126.34C245.747 126.422 244.936 126.308 244.579 125.998C244.283 125.616 244.108 125.06 244.053 124.329C243.983 123.398 244.08 122.456 244.343 121.504C244.667 120.48 244.903 119.162 245.05 117.549C245.263 115.932 246.025 114.947 247.335 114.594C248.707 114.171 250.125 113.911 251.589 113.815C252.986 113.724 254.093 113.785 254.912 113.999C255.725 114.146 256.189 114.984 256.303 116.513C256.437 118.308 256.025 119.939 255.065 121.404C254.171 122.866 252.989 124.045 251.519 124.943C250.044 125.774 248.541 126.24 247.011 126.34ZM303.605 133.565C301.875 133.678 300.938 132.77 300.794 130.842C300.635 128.715 300.875 126.127 301.516 123.079C302.162 120.097 302.931 116.974 303.823 113.709C304.782 110.44 305.594 107.447 306.26 104.732L305.961 104.751C303.114 110.482 299.75 115.111 295.87 118.638C292.05 122.094 288.178 123.951 284.253 124.207C282.324 124.333 280.293 123.998 278.162 123.202C276.091 122.335 274.129 121.127 272.275 119.578C270.487 118.025 268.984 116.253 267.766 114.261C266.547 112.27 265.856 110.177 265.692 107.984C265.433 104.527 265.725 100.833 266.567 96.9034C267.471 92.9028 268.774 88.8761 270.476 84.8233C272.178 80.7706 274.228 76.8955 276.625 73.1982C279.018 69.4343 281.606 66.0585 284.391 63.0707C287.242 60.0786 290.205 57.6804 293.278 55.8762C296.352 54.0721 299.386 53.0722 302.38 52.8766C303.843 52.7809 305.216 53.2591 306.498 54.311C307.846 55.3586 308.941 56.5898 309.783 58.0046C310.69 59.415 311.181 60.6188 311.256 61.616C311.331 62.6132 311.002 63.1357 310.27 63.1835C309.805 63.214 309.056 63.0291 308.023 62.6289C307.052 62.1579 305.668 61.9811 303.872 62.0985C301.011 62.2854 298.154 63.4074 295.3 65.4644C292.445 67.5215 289.738 70.2036 287.178 73.5108C284.618 76.8179 282.351 80.4733 280.378 84.477C278.399 88.4142 276.892 92.3874 275.855 96.3967C274.884 100.402 274.526 104.099 274.78 107.49C274.959 109.883 275.878 111.894 277.537 113.523C279.192 115.085 281.05 115.798 283.113 115.664C285.241 115.525 287.579 114.604 290.126 112.901C292.667 111.131 295.23 108.759 297.816 105.784C300.401 102.81 302.756 99.449 304.883 95.7026L304.86 95.4034C303.237 96.0439 301.77 96.5406 300.459 96.8935C299.21 97.1755 297.954 97.3578 296.69 97.4404C294.894 97.5578 293.329 97.1924 291.995 96.3442C290.656 95.4296 289.955 94.5402 289.89 93.6759C289.86 93.277 290.158 92.7899 290.784 92.2146C291.409 91.6393 292.771 91.0827 294.87 90.5447C297.031 89.9359 300.306 89.488 304.697 89.2012C307.158 89.0403 309.195 89.9093 310.808 91.8081C312.421 93.7069 313.329 96.0192 313.533 98.7449C313.598 99.6091 313.475 101.087 313.163 103.178C312.847 105.203 312.42 107.536 311.882 110.176C311.339 112.75 310.702 115.398 309.969 118.118C309.304 120.833 308.556 123.354 307.728 125.68C306.965 128.001 306.237 129.885 305.544 131.334C304.85 132.782 304.203 133.526 303.605 133.565ZM327.086 121.108C325.822 121.19 325.012 121.076 324.654 120.766C324.358 120.384 324.183 119.828 324.128 119.096C324.058 118.166 324.155 117.224 324.418 116.272C324.743 115.248 324.978 113.93 325.125 112.317C325.338 110.7 326.1 109.715 327.411 109.362C328.783 108.938 330.201 108.679 331.664 108.583C333.061 108.492 334.169 108.553 334.987 108.767C335.8 108.914 336.264 109.752 336.379 111.281C336.513 113.076 336.1 114.707 335.14 116.172C334.247 117.634 333.065 118.813 331.594 119.711C330.119 120.542 328.616 121.008 327.086 121.108Z" fill="url(#paint0_linear_160_2)"/>
</g>
<g filter="url(#filter1_i_160_2)">
<path d="M338.425 77.3732C339.851 77.2352 341.235 76.875 342.431 76.319C343.672 75.7856 344.775 75.1448 345.741 74.4097C345.85 75.6614 345.685 76.7115 345.267 77.5844C344.907 78.3727 344.264 79.1193 343.375 79.7415C342.524 80.3204 341.49 80.7693 340.335 81.0562C339.055 81.3807 337.722 81.6035 336.401 81.7058C334.506 81.8848 332.595 81.8662 330.774 81.6538C329.06 81.4452 327.495 80.9714 326.232 80.272C324.947 79.5614 323.898 78.6043 323.083 77.3878C322.268 76.1712 321.792 74.6463 321.611 72.8299C321.516 71.4973 321.613 70.148 321.924 68.8063C322.231 67.3988 322.881 66.001 323.86 64.6806C324.82 63.3885 326.242 62.2285 327.983 61.2796C329.764 60.3006 332.051 59.7023 334.862 59.4563C337.204 59.2514 339.033 59.3038 340.326 59.6155C341.62 59.9272 342.6 60.3459 343.271 60.8979C343.895 61.401 344.311 61.9886 344.475 62.6381C344.614 63.2499 344.722 63.7449 344.755 64.127C344.844 65.1416 344.57 66.1746 343.948 67.1584C343.346 68.1271 342.437 69.0297 341.281 69.7947C340.086 70.6029 338.686 71.283 337.166 71.8143C335.542 72.3812 333.796 72.7862 331.991 72.9973C332.39 74.8609 333.184 76.0925 334.374 76.692C335.495 77.2445 336.934 77.5036 338.425 77.3732ZM339.282 64.3537C339.186 63.2601 338.842 62.5201 338.274 62.1583C337.705 61.7832 337.09 61.6246 336.43 61.6823C335.578 61.7569 334.878 62.0969 334.287 62.693C333.64 63.4001 333.128 64.1619 332.809 64.9333C332.4 65.8984 332.121 66.8787 331.97 67.861C331.801 68.8716 331.74 69.8859 331.785 70.891C332.909 70.7396 333.999 70.4451 334.971 70.0281C335.901 69.6149 336.736 69.1037 337.394 68.5283C338.07 67.9248 338.571 67.2703 338.896 66.5648C339.198 65.848 339.346 65.0915 339.282 64.3537Z" fill="url(#paint1_linear_160_2)"/>
</g>
<g filter="url(#filter2_i_160_2)">
<path d="M350.841 69.6023C351.655 78.9004 344.777 87.0974 335.478 87.9109C326.18 88.7244 317.983 81.8462 317.17 72.5481C316.356 63.25 323.234 55.053 332.533 54.2395C341.831 53.426 350.028 60.3042 350.841 69.6023Z" stroke="url(#paint2_linear_160_2)" stroke-width="1.2"/>
</g>
<g filter="url(#filter3_i_160_2)">
<path d="M57.2148 178.078C185.977 153.262 258.629 138.863 354.215 149.078" stroke="url(#paint3_linear_160_2)" stroke-width="6" stroke-linecap="round"/>
</g>
<ellipse cx="208.315" cy="114.898" rx="197.439" ry="85.0591" transform="rotate(-9 208.315 114.898)" fill="url(#paint4_linear_160_2)" fill-opacity="0.3"/>
<defs>
<filter id="filter0_i_160_2" x="81.9485" y="47.2521" width="255.93" height="100.268" filterUnits="userSpaceOnUse" color-interpolation-filters="sRGB">
<feFlood flood-opacity="0" result="BackgroundImageFix"/>
<feBlend mode="normal" in="SourceGraphic" in2="BackgroundImageFix" result="shape"/>
<feColorMatrix in="SourceAlpha" type="matrix" values="0 0 0 0 0 0 0 0 0 0 0 0 0 0 0 0 0 0 127 0" result="hardAlpha"/>
<feOffset dx="-2" dy="-3"/>
<feGaussianBlur stdDeviation="1.5"/>
<feComposite in2="hardAlpha" operator="arithmetic" k2="-1" k3="1"/>
<feColorMatrix type="matrix" values="0 0 0 0 0 0 0 0 0 0 0 0 0 0 0 0 0 0 0.5 0"/>
<feBlend mode="normal" in2="shape" result="effect1_innerShadow_160_2"/>
</filter>
<filter id="filter1_i_160_2" x="319.576" y="56.3341" width="26.1975" height="25.4937" filterUnits="userSpaceOnUse" color-interpolation-filters="sRGB">
<feFlood flood-opacity="0" result="BackgroundImageFix"/>
<feBlend mode="normal" in="SourceGraphic" in2="BackgroundImageFix" result="shape"/>
<feColorMatrix in="SourceAlpha" type="matrix" values="0 0 0 0 0 0 0 0 0 0 0 0 0 0 0 0 0 0 127 0" result="hardAlpha"/>
<feOffset dx="-2" dy="-3"/>
<feGaussianBlur stdDeviation="1.5"/>
<feComposite in2="hardAlpha" operator="arithmetic" k2="-1" k3="1"/>
<feColorMatrix type="matrix" values="0 0 0 0 0 0 0 0 0 0 0 0 0 0 0 0 0 0 0.25 0"/>
<feBlend mode="normal" in2="shape" result="effect1_innerShadow_160_2"/>
</filter>
<filter id="filter2_i_160_2" x="314.504" y="50.5741" width="37.0022" height="38.0022" filterUnits="userSpaceOnUse" color-interpolation-filters="sRGB">
<feFlood flood-opacity="0" result="BackgroundImageFix"/>
<feBlend mode="normal" in="SourceGraphic" in2="BackgroundImageFix" result="shape"/>
<feColorMatrix in="SourceAlpha" type="matrix" values="0 0 0 0 0 0 0 0 0 0 0 0 0 0 0 0 0 0 127 0" result="hardAlpha"/>
<feOffset dx="-2" dy="-3"/>
<feGaussianBlur stdDeviation="1.5"/>
<feComposite in2="hardAlpha" operator="arithmetic" k2="-1" k3="1"/>
<feColorMatrix type="matrix" values="0 0 0 0 0 0 0 0 0 0 0 0 0 0 0 0 0 0 0.25 0"/>
<feBlend mode="normal" in2="shape" result="effect1_innerShadow_160_2"/>
</filter>
<filter id="filter3_i_160_2" x="52.2144" y="139.759" width="305.001" height="41.3188" filterUnits="userSpaceOnUse" color-interpolation-filters="sRGB">
<feFlood flood-opacity="0" result="BackgroundImageFix"/>
<feBlend mode="normal" in="SourceGraphic" in2="BackgroundImageFix" result="shape"/>
<feColorMatrix in="SourceAlpha" type="matrix" values="0 0 0 0 0 0 0 0 0 0 0 0 0 0 0 0 0 0 127 0" result="hardAlpha"/>
<feOffset dx="-2" dy="-3"/>
<feGaussianBlur stdDeviation="1.5"/>
<feComposite in2="hardAlpha" operator="arithmetic" k2="-1" k3="1"/>
<feColorMatrix type="matrix" values="0 0 0 0 0 0 0 0 0 0 0 0 0 0 0 0 0 0 0.25 0"/>
<feBlend mode="normal" in2="shape" result="effect1_innerShadow_160_2"/>
</filter>
<linearGradient id="paint0_linear_160_2" x1="220.047" y1="90.1166" x2="224.047" y2="107.117" gradientUnits="userSpaceOnUse">
<stop stop-color="#F7F7F7"/>
<stop offset="1" stop-color="#C31616"/>
</linearGradient>
<linearGradient id="paint1_linear_160_2" x1="329.047" y1="53.1166" x2="340.749" y2="80.0949" gradientUnits="userSpaceOnUse">
<stop offset="0.402851" stop-color="#F7F7F7"/>
<stop offset="1" stop-color="#C31616"/>
</linearGradient>
<linearGradient id="paint2_linear_160_2" x1="339.047" y1="68.1166" x2="342.547" y2="74.6166" gradientUnits="userSpaceOnUse">
<stop offset="0.385508" stop-color="#F7F7F7"/>
<stop offset="1" stop-color="#C31616"/>
</linearGradient>
<linearGradient id="paint3_linear_160_2" x1="241.047" y1="167.117" x2="238.047" y2="197.617" gradientUnits="userSpaceOnUse">
<stop stop-color="#C31616"/>
<stop offset="1" stop-color="#F7F7F7"/>
</linearGradient>
<linearGradient id="paint4_linear_160_2" x1="208.315" y1="29.8391" x2="219.665" y2="156.285" gradientUnits="userSpaceOnUse">
<stop offset="0.645021" stop-color="#111214"/>
<stop offset="1" stop-color="#C31616"/>
</linearGradient>
</defs>
</svg>
