<svg width="309" height="150" viewBox="0 0 309 150" fill="none" xmlns="http://www.w3.org/2000/svg">
<g filter="url(#filter0_i_191_81)">
<path d="M39.9451 105.221C39.4129 105.256 38.7178 104.901 37.8598 104.155C37.0634 103.339 36.3235 102.385 35.6402 101.294C35.0184 100.132 34.6677 99.0193 34.5881 97.9556C34.4837 96.5595 34.6313 94.5123 35.031 91.8139C35.4972 89.1112 36.0642 85.9677 36.7319 82.3834C37.4611 78.7282 38.2111 74.9047 38.982 70.9127C39.8144 66.85 40.5495 62.827 41.1873 58.8438C41.8867 54.7898 42.4039 50.9814 42.7389 47.4188C43.1405 43.8519 43.2417 40.7388 43.0427 38.0796C42.9582 36.9494 43.034 36.1762 43.2702 35.7599C43.568 35.2728 44.1494 35.001 45.0142 34.9445C45.5464 34.9097 46.4435 35.2853 47.7057 36.0713C48.9678 36.8574 50.1426 37.8161 51.23 38.9475C52.379 40.0082 53.0215 41.0017 53.1577 41.9281C53.4767 43.5106 54.2928 45.9291 55.6059 49.1835C56.9856 52.4337 58.6637 56.0986 60.6403 60.1782C62.6834 64.2535 64.8262 68.3222 67.0689 72.3845C70.4659 67.7533 73.7274 63.0976 76.8534 58.4174C79.9793 53.7371 82.8357 49.4753 85.4227 45.632C88.0096 41.7886 90.2854 38.7005 92.25 36.3675C94.2096 33.9681 95.7217 32.7336 96.7861 32.664C97.5844 32.6119 98.4408 32.89 99.3554 33.4983C100.331 34.0357 101.154 34.7503 101.822 35.6419C102.552 36.4627 102.947 37.2719 103.007 38.0697C103.121 39.5988 102.932 41.9827 102.439 45.2216C102.007 48.3897 101.383 52.1048 100.565 56.367C99.7479 60.6292 98.8813 65.1284 97.9656 69.8646C97.0449 74.5344 96.1525 79.1355 95.2884 83.668C94.4193 88.1339 93.7225 92.2212 93.1978 95.9298C92.6215 99.8422 91.8345 101.831 90.8366 101.896C89.7722 101.966 88.7787 101.196 87.856 99.5857C86.9283 97.9094 86.37 95.8081 86.1809 93.2818C86.1013 92.2181 86.174 90.5098 86.399 88.1569C86.6191 85.7375 86.9756 82.9084 87.4685 79.6695C87.9615 76.4306 88.5393 72.9858 89.202 69.3349C89.8647 65.6841 90.5656 62.0976 91.3048 58.5754C92.1105 55.0489 92.9361 51.7883 93.7816 48.7936C91.005 52.7829 88.295 56.7679 85.6515 60.7486C83.008 64.7292 80.4726 68.3688 78.0455 71.6673C75.6133 74.8992 73.4025 77.5155 71.413 79.5161C69.4235 81.5166 67.6638 82.5669 66.1337 82.6669C64.7367 82.7581 63.3132 82.0495 61.8633 80.5409C60.475 78.9614 59.0801 76.848 57.6786 74.2005C56.2772 71.553 54.8891 68.6375 53.5144 65.4538C52.2063 62.2658 50.9338 59.1089 49.6971 55.983C49.3186 60.7509 48.7613 65.3635 48.0253 69.8208C47.2893 74.2781 46.5283 78.403 45.7426 82.1954C45.0233 85.9836 44.3665 89.2666 43.7722 92.0444C43.048 95.7661 42.3455 98.885 41.6647 101.401C41.0505 103.913 40.4773 105.187 39.9451 105.221ZM112.596 100.474C111.332 100.557 110.522 100.443 110.164 100.132C109.868 99.7508 109.693 99.1944 109.638 98.4631C109.569 97.5324 109.665 96.5908 109.928 95.6383C110.253 94.615 110.488 93.2969 110.635 91.684C110.848 90.0667 111.61 89.0817 112.921 88.7288C114.293 88.3051 115.711 88.0455 117.174 87.9498C118.571 87.8586 119.679 87.9198 120.497 88.1336C121.31 88.2808 121.774 89.119 121.889 90.6481C122.023 92.4431 121.61 94.0734 120.65 95.539C119.757 97.0003 118.575 98.1798 117.105 99.0776C115.629 99.9088 114.127 100.374 112.596 100.474ZM137.617 99.8417C136.952 99.8851 136.164 99.636 135.255 99.0941C134.412 98.548 133.656 97.8291 132.988 96.9375C132.314 95.9794 131.943 95.035 131.873 94.1043C131.823 93.4394 133.366 88.5954 136.501 79.5722C134.838 79.6809 133.409 79.34 132.213 78.5497C131.079 77.6885 130.465 76.6263 130.37 75.3632C130.271 74.0336 133.437 72.1232 139.869 69.6319C140.038 69.22 140.396 68.1945 140.942 66.5555C141.483 64.85 142.132 62.8035 142.889 60.4158C143.713 58.0238 144.557 55.4634 145.423 52.7346C146.288 50.0058 147.128 47.3789 147.942 44.8539C148.755 42.3289 149.459 40.1118 150.051 38.2025C150.705 36.2224 151.169 34.8226 151.441 34.0031C152.039 32.1603 153.188 30.5487 154.89 29.1682C156.653 27.7169 158.4 26.9347 160.129 26.8217C160.994 26.7652 161.89 27.5751 162.818 29.2514C163.812 30.9234 164.777 33.0984 165.713 35.7763C166.715 38.4498 167.633 41.3293 168.465 44.4148C169.298 47.5003 170.023 50.4926 170.641 53.3916C171.321 56.2199 171.832 58.5915 172.176 60.5064C173.098 60.3125 173.953 60.1231 174.741 59.938C175.591 59.682 176.348 59.5323 177.014 59.4888C178.544 59.3889 179.697 59.6141 180.474 60.1646C181.245 60.6487 181.663 61.3228 181.728 62.1871C181.822 63.4502 179.005 65.104 173.275 67.1486C173.644 69.3959 173.963 71.8802 174.234 74.6016C174.566 77.2521 174.857 79.8051 175.108 82.2605C175.354 84.6495 175.539 86.675 175.663 88.337C175.872 91.1292 175.891 93.1655 175.719 94.4461C175.614 95.7222 175.341 96.5417 174.9 96.9046C174.459 97.2674 173.873 97.4727 173.141 97.5205C172.077 97.5901 171.203 97.0793 170.52 95.9883C169.836 94.8972 169.307 93.6291 168.932 92.1839C168.622 90.7344 168.362 89.4821 168.149 88.4271C167.644 85.2534 167.142 82.113 166.642 79.0058C166.208 75.8942 165.744 72.8181 165.249 69.7773C161.921 70.8633 158.726 71.9405 155.664 73.0091C152.664 74.0068 149.535 75.0797 146.279 76.2277C141.502 91.9052 138.615 99.7765 137.617 99.8417ZM149.254 66.4133C151.533 65.5963 153.885 64.8747 156.312 64.2486C158.8 63.5515 161.357 62.8834 163.984 62.2442C162.957 56.5659 161.985 51.619 161.068 47.4034C160.151 43.1877 159.319 39.6679 158.573 36.844C157.368 40.3967 155.98 44.6293 154.409 49.542C152.838 54.4547 151.12 60.0784 149.254 66.4133ZM192.964 95.2232C191.7 95.3058 190.889 95.1918 190.532 94.8811C190.236 94.4996 190.061 93.9432 190.006 93.2119C189.936 92.2812 190.033 91.3396 190.296 90.3872C190.62 89.3639 190.856 88.0458 191.003 86.4328C191.216 84.8156 191.978 83.8305 193.288 83.4776C194.661 83.0539 196.078 82.7943 197.542 82.6987C198.939 82.6074 200.047 82.6686 200.865 82.8824C201.678 83.0297 202.142 83.8678 202.256 85.3969C202.391 87.1919 201.978 88.8222 201.018 90.2878C200.125 91.7491 198.943 92.9286 197.472 93.8264C195.997 94.6577 194.494 95.1233 192.964 95.2232ZM249.558 102.448C247.828 102.561 246.891 101.654 246.747 99.7258C246.588 97.5984 246.829 95.0107 247.47 91.9625C248.115 88.9809 248.884 85.8575 249.777 82.5926C250.735 79.3233 251.547 76.3307 252.213 73.615L251.914 73.6346C249.067 79.3654 245.703 83.9944 241.823 87.5215C238.003 90.9777 234.131 92.834 230.206 93.0905C228.277 93.2165 226.247 92.8816 224.115 92.0856C222.044 91.2188 220.082 90.0109 218.228 88.4619C216.441 86.9085 214.938 85.1362 213.719 83.1448C212.5 81.1534 211.809 79.0608 211.645 76.867C211.386 73.41 211.678 69.7166 212.52 65.7868C213.424 61.7862 214.727 57.7595 216.429 53.7067C218.132 49.654 220.181 45.7789 222.579 42.0816C224.971 38.3178 227.559 34.9419 230.344 31.9541C233.195 28.962 236.158 26.5638 239.232 24.7597C242.305 22.9555 245.339 21.9556 248.333 21.76C249.796 21.6644 251.169 22.1425 252.451 23.1945C253.8 24.242 254.894 25.4732 255.736 26.888C256.643 28.2984 257.135 29.5022 257.209 30.4994C257.284 31.4966 256.955 32.0191 256.224 32.067C255.758 32.0974 255.009 31.9125 253.976 31.5123C253.005 31.0414 251.621 30.8645 249.825 30.9819C246.964 31.1688 244.107 32.2908 241.253 34.3479C238.398 36.4049 235.691 39.087 233.131 42.3942C230.571 45.7013 228.304 49.3568 226.331 53.3604C224.352 57.2976 222.845 61.2709 221.808 65.2802C220.837 69.2851 220.479 72.9829 220.733 76.3734C220.912 78.7667 221.831 80.7776 223.491 82.4061C225.145 83.9682 227.003 84.6818 229.066 84.5471C231.194 84.408 233.532 83.487 236.079 81.784C238.62 80.0146 241.184 77.6426 243.769 74.6678C246.354 71.693 248.709 68.3324 250.836 64.586L250.813 64.2868C249.19 64.9274 247.723 65.424 246.412 65.7769C245.163 66.0589 243.907 66.2412 242.643 66.3238C240.847 66.4412 239.282 66.0758 237.948 65.2276C236.61 64.313 235.908 63.4236 235.843 62.5593C235.813 62.1605 236.111 61.6734 236.737 61.098C237.362 60.5227 238.724 59.9661 240.823 59.4281C242.984 58.8193 246.259 58.3715 250.65 58.0846C253.111 57.9237 255.148 58.7927 256.761 60.6915C258.374 62.5903 259.282 64.9026 259.486 67.6283C259.551 68.4925 259.428 69.9703 259.116 72.0617C258.8 74.0865 258.373 76.4192 257.835 79.0598C257.292 81.6339 256.655 84.2809 255.922 87.001C255.257 89.7168 254.509 92.2374 253.681 94.563C252.918 96.8842 252.19 98.7689 251.497 100.217C250.803 101.665 250.157 102.409 249.558 102.448ZM273.039 89.9912C271.776 90.0738 270.965 89.9597 270.607 89.649C270.311 89.2675 270.136 88.7112 270.081 87.9799C270.012 87.0491 270.108 86.1075 270.371 85.1551C270.696 84.1318 270.931 82.8137 271.078 81.2007C271.291 79.5835 272.053 78.5984 273.364 78.2456C274.736 77.8219 276.154 77.5622 277.617 77.4666C279.014 77.3753 280.122 77.4365 280.94 77.6503C281.753 77.7976 282.217 78.6358 282.332 80.1648C282.466 81.9598 282.053 83.5901 281.093 85.0558C280.2 86.5171 279.018 87.6966 277.548 88.5943C276.072 89.4256 274.57 89.8912 273.039 89.9912Z" fill="url(#paint0_linear_191_81)"/>
</g>
<g filter="url(#filter1_i_191_81)">
<path d="M284.378 46.2567C285.804 46.1187 287.189 45.7585 288.385 45.2025C289.625 44.6691 290.728 44.0283 291.694 43.2932C291.803 44.5449 291.638 45.595 291.221 46.4679C290.86 47.2562 290.218 48.0028 289.328 48.625C288.477 49.2039 287.443 49.6528 286.288 49.9397C285.008 50.2642 283.675 50.487 282.354 50.5893C280.46 50.7683 278.548 50.7497 276.727 50.5373C275.013 50.3287 273.448 49.8549 272.185 49.1555C270.9 48.4448 269.851 47.4878 269.036 46.2713C268.222 45.0547 267.745 43.5298 267.564 41.7134C267.469 40.3808 267.566 39.0315 267.878 37.6898C268.184 36.2823 268.834 34.8845 269.813 33.5641C270.773 32.272 272.195 31.112 273.936 30.1631C275.717 29.1841 278.004 28.5857 280.815 28.3398C283.157 28.1349 284.986 28.1873 286.279 28.499C287.573 28.8107 288.554 29.2294 289.224 29.7814C289.848 30.2845 290.264 30.8721 290.428 31.5215C290.567 32.1333 290.675 32.6284 290.708 33.0105C290.797 34.025 290.523 35.0581 289.901 36.0418C289.299 37.0106 288.391 37.9132 287.234 38.6782C286.039 39.4864 284.639 40.1665 283.119 40.6977C281.495 41.2647 279.749 41.6697 277.944 41.8807C278.343 43.7444 279.137 44.976 280.327 45.5755C281.448 46.128 282.887 46.3871 284.378 46.2567ZM285.235 33.2372C285.139 32.1436 284.795 31.4036 284.227 31.0418C283.658 30.6667 283.043 30.5081 282.383 30.5658C281.531 30.6404 280.831 30.9804 280.24 31.5765C279.593 32.2836 279.081 33.0454 278.762 33.8167C278.353 34.7819 278.074 35.7622 277.924 36.7445C277.755 37.755 277.693 38.7694 277.738 39.7745C278.862 39.6231 279.952 39.3285 280.924 38.9116C281.854 38.4983 282.689 37.9872 283.347 37.4118C284.024 36.8083 284.524 36.1538 284.849 35.4483C285.151 34.7315 285.299 33.975 285.235 33.2372Z" fill="url(#paint1_linear_191_81)"/>
</g>
<g filter="url(#filter2_i_191_81)">
<path d="M296.794 38.4857C297.608 47.7838 290.73 55.9809 281.432 56.7944C272.133 57.6078 263.936 50.7297 263.123 41.4316C262.309 32.1335 269.188 23.9365 278.486 23.123C287.784 22.3095 295.981 29.1877 296.794 38.4857Z" stroke="url(#paint2_linear_191_81)" stroke-width="1.2"/>
</g>
<g filter="url(#filter3_i_191_81)">
<path d="M3.16792 146.961C131.93 122.146 204.582 107.746 300.168 117.961" stroke="url(#paint3_linear_191_81)" stroke-width="6" stroke-linecap="round"/>
</g>
<defs>
<filter id="filter0_i_191_81" x="27.9015" y="16.1355" width="255.93" height="100.268" filterUnits="userSpaceOnUse" color-interpolation-filters="sRGB">
<feFlood flood-opacity="0" result="BackgroundImageFix"/>
<feBlend mode="normal" in="SourceGraphic" in2="BackgroundImageFix" result="shape"/>
<feColorMatrix in="SourceAlpha" type="matrix" values="0 0 0 0 0 0 0 0 0 0 0 0 0 0 0 0 0 0 127 0" result="hardAlpha"/>
<feOffset dx="-2" dy="-3"/>
<feGaussianBlur stdDeviation="1.5"/>
<feComposite in2="hardAlpha" operator="arithmetic" k2="-1" k3="1"/>
<feColorMatrix type="matrix" values="0 0 0 0 0 0 0 0 0 0 0 0 0 0 0 0 0 0 0.5 0"/>
<feBlend mode="normal" in2="shape" result="effect1_innerShadow_191_81"/>
</filter>
<filter id="filter1_i_191_81" x="265.529" y="25.2175" width="26.1975" height="25.4937" filterUnits="userSpaceOnUse" color-interpolation-filters="sRGB">
<feFlood flood-opacity="0" result="BackgroundImageFix"/>
<feBlend mode="normal" in="SourceGraphic" in2="BackgroundImageFix" result="shape"/>
<feColorMatrix in="SourceAlpha" type="matrix" values="0 0 0 0 0 0 0 0 0 0 0 0 0 0 0 0 0 0 127 0" result="hardAlpha"/>
<feOffset dx="-2" dy="-3"/>
<feGaussianBlur stdDeviation="1.5"/>
<feComposite in2="hardAlpha" operator="arithmetic" k2="-1" k3="1"/>
<feColorMatrix type="matrix" values="0 0 0 0 0 0 0 0 0 0 0 0 0 0 0 0 0 0 0.25 0"/>
<feBlend mode="normal" in2="shape" result="effect1_innerShadow_191_81"/>
</filter>
<filter id="filter2_i_191_81" x="260.458" y="19.4576" width="37.0022" height="38.0021" filterUnits="userSpaceOnUse" color-interpolation-filters="sRGB">
<feFlood flood-opacity="0" result="BackgroundImageFix"/>
<feBlend mode="normal" in="SourceGraphic" in2="BackgroundImageFix" result="shape"/>
<feColorMatrix in="SourceAlpha" type="matrix" values="0 0 0 0 0 0 0 0 0 0 0 0 0 0 0 0 0 0 127 0" result="hardAlpha"/>
<feOffset dx="-2" dy="-3"/>
<feGaussianBlur stdDeviation="1.5"/>
<feComposite in2="hardAlpha" operator="arithmetic" k2="-1" k3="1"/>
<feColorMatrix type="matrix" values="0 0 0 0 0 0 0 0 0 0 0 0 0 0 0 0 0 0 0.25 0"/>
<feBlend mode="normal" in2="shape" result="effect1_innerShadow_191_81"/>
</filter>
<filter id="filter3_i_191_81" x="-1.83264" y="108.643" width="305.001" height="41.3188" filterUnits="userSpaceOnUse" color-interpolation-filters="sRGB">
<feFlood flood-opacity="0" result="BackgroundImageFix"/>
<feBlend mode="normal" in="SourceGraphic" in2="BackgroundImageFix" result="shape"/>
<feColorMatrix in="SourceAlpha" type="matrix" values="0 0 0 0 0 0 0 0 0 0 0 0 0 0 0 0 0 0 127 0" result="hardAlpha"/>
<feOffset dx="-2" dy="-3"/>
<feGaussianBlur stdDeviation="1.5"/>
<feComposite in2="hardAlpha" operator="arithmetic" k2="-1" k3="1"/>
<feColorMatrix type="matrix" values="0 0 0 0 0 0 0 0 0 0 0 0 0 0 0 0 0 0 0.25 0"/>
<feBlend mode="normal" in2="shape" result="effect1_innerShadow_191_81"/>
</filter>
<linearGradient id="paint0_linear_191_81" x1="166" y1="59" x2="170" y2="76" gradientUnits="userSpaceOnUse">
<stop stop-color="#8C8888"/>
<stop offset="1" stop-color="#C31616"/>
</linearGradient>
<linearGradient id="paint1_linear_191_81" x1="275" y1="22.0001" x2="286.703" y2="48.9784" gradientUnits="userSpaceOnUse">
<stop offset="0.402851" stop-color="#8C8888"/>
<stop offset="1" stop-color="#C31616"/>
</linearGradient>
<linearGradient id="paint2_linear_191_81" x1="285" y1="37.0001" x2="288.5" y2="43.5001" gradientUnits="userSpaceOnUse">
<stop offset="0.385508" stop-color="#8C8888"/>
<stop offset="1" stop-color="#C31616"/>
</linearGradient>
<linearGradient id="paint3_linear_191_81" x1="187" y1="136" x2="184" y2="166.5" gradientUnits="userSpaceOnUse">
<stop stop-color="#C31616"/>
<stop offset="1" stop-color="#F7F7F7"/>
</linearGradient>
</defs>
</svg>
