<svg width="522" height="520" viewBox="0 0 522 520" fill="none" xmlns="http://www.w3.org/2000/svg">
<rect x="2" width="520" height="520" rx="100" fill="black"/>
<g filter="url(#filter0_i_178_65)">
<path d="M3.14511 371.552C215.461 338.165 335.282 318.926 491.059 322.961" stroke="url(#paint0_linear_178_65)" stroke-width="6" stroke-linecap="round"/>
</g>
<g filter="url(#filter1_i_178_65)">
<path d="M33.937 317.143C32.9259 317.21 31.6064 316.536 29.9786 315.121C28.4678 313.572 27.0649 311.761 25.7698 309.689C24.5919 307.483 23.9288 305.369 23.7805 303.348C23.5858 300.695 23.8719 296.804 24.6386 291.675C25.5317 286.538 26.6173 280.562 27.8954 273.749C29.2907 266.801 30.726 259.533 32.2013 251.945C33.7937 244.222 35.2011 236.575 36.4237 229.004C37.7633 221.298 38.7562 214.06 39.4024 207.288C40.175 200.509 40.3759 194.593 40.0052 189.539C39.8476 187.392 39.9938 185.922 40.4437 185.131C41.0108 184.204 42.1158 183.686 43.7588 183.577C44.7699 183.509 46.4732 184.221 48.8686 185.712C51.2641 187.202 53.4931 189.021 55.5558 191.169C57.7355 193.182 58.9535 195.068 59.2096 196.828C59.8113 199.835 61.3549 204.429 63.8405 210.611C66.4526 216.784 69.6304 223.744 73.374 231.493C77.244 239.232 81.3036 246.959 85.5528 254.673C92.0186 245.864 98.2271 237.009 104.178 228.107C110.129 219.205 115.567 211.099 120.492 203.789C125.417 196.479 129.748 190.604 133.487 186.166C137.216 181.601 140.092 179.252 142.114 179.117C143.631 179.016 145.257 179.542 146.992 180.696C148.845 181.715 150.405 183.071 151.673 184.764C153.057 186.322 153.805 187.859 153.916 189.375C154.129 192.28 153.763 196.811 152.818 202.967C151.99 208.989 150.793 216.051 149.229 224.152C147.664 232.254 146.005 240.807 144.253 249.81C142.491 258.686 140.783 267.432 139.129 276.048C137.466 284.537 136.131 292.306 135.124 299.355C134.019 306.792 132.518 310.573 130.623 310.699C128.6 310.834 126.715 309.373 124.967 306.316C123.209 303.132 122.154 299.14 121.802 294.34C121.654 292.319 121.796 289.072 122.23 284.6C122.655 280.002 123.34 274.625 124.285 268.468C125.231 262.312 126.338 255.764 127.607 248.824C128.875 241.885 130.217 235.067 131.631 228.372C133.171 221.668 134.748 215.47 136.362 209.777C131.077 217.365 125.918 224.944 120.885 232.515C115.853 240.087 111.026 247.009 106.407 253.284C101.777 259.432 97.5705 264.409 93.7857 268.216C90.0008 272.022 86.655 274.023 83.7481 274.216C81.094 274.393 78.3918 273.05 75.6417 270.186C73.0086 267.188 70.3645 263.175 67.7096 258.148C65.0546 253.12 62.4257 247.582 59.8229 241.536C57.3466 235.48 54.938 229.484 52.5973 223.547C51.8652 232.609 50.7939 241.376 49.3835 249.848C47.9731 258.32 46.5163 266.161 45.0132 273.37C43.6365 280.571 42.3798 286.811 41.2432 292.092C39.8572 299.166 38.5142 305.095 37.2141 309.879C36.0405 314.654 34.9481 317.075 33.937 317.143ZM171.963 307.944C169.561 308.104 168.022 307.89 167.343 307.3C166.782 306.576 166.451 305.519 166.349 304.129C166.219 302.361 166.405 300.571 166.907 298.76C167.526 296.815 167.978 294.309 168.261 291.244C168.67 288.17 170.12 286.296 172.611 285.622C175.219 284.814 177.913 284.317 180.693 284.132C183.347 283.955 185.451 284.068 187.005 284.473C188.55 284.751 189.428 286.342 189.642 289.248C189.892 292.659 189.103 295.758 187.276 298.546C185.574 301.325 183.326 303.569 180.53 305.279C177.726 306.862 174.87 307.751 171.963 307.944ZM219.495 306.681C218.231 306.765 216.736 306.294 215.01 305.266C213.41 304.23 211.976 302.866 210.709 301.173C209.432 299.354 208.729 297.56 208.599 295.792C208.507 294.528 211.451 285.319 217.431 268.164C214.271 268.374 211.557 267.73 209.288 266.231C207.136 264.597 205.972 262.58 205.796 260.18C205.61 257.653 211.63 254.015 223.855 249.265C224.179 248.482 224.861 246.532 225.903 243.416C226.935 240.174 228.173 236.283 229.618 231.744C231.19 227.196 232.801 222.328 234.452 217.14C236.104 211.952 237.706 206.958 239.259 202.158C240.812 197.357 242.153 193.142 243.284 189.512C244.532 185.748 245.416 183.087 245.937 181.528C247.077 178.025 249.265 174.959 252.501 172.332C255.855 169.569 259.174 168.079 262.461 167.86C264.104 167.75 265.804 169.287 267.561 172.471C269.446 175.646 271.273 179.777 273.043 184.863C274.94 189.942 276.675 195.412 278.248 201.273C279.821 207.135 281.19 212.82 282.357 218.327C283.64 223.7 284.606 228.206 285.253 231.844C287.004 231.474 288.629 231.112 290.127 230.758C291.742 230.269 293.182 229.983 294.446 229.899C297.352 229.705 299.543 230.13 301.016 231.175C302.481 232.093 303.273 233.373 303.394 235.015C303.57 237.415 298.213 240.565 287.323 244.464C288.017 248.734 288.617 253.455 289.124 258.626C289.747 263.662 290.294 268.513 290.763 273.179C291.223 277.718 291.569 281.567 291.801 284.725C292.19 290.031 292.22 293.9 291.89 296.334C291.687 298.76 291.167 300.318 290.328 301.008C289.49 301.699 288.376 302.091 286.985 302.183C284.963 302.318 283.305 301.35 282.01 299.278C280.715 297.206 279.712 294.797 279.003 292.052C278.42 289.298 277.928 286.919 277.527 284.914C276.576 278.884 275.63 272.918 274.689 267.014C273.874 261.102 273.001 255.257 272.069 249.48C265.744 251.552 259.671 253.606 253.852 255.645C248.149 257.548 242.203 259.594 236.014 261.784C226.897 291.589 221.391 306.555 219.495 306.681ZM241.693 243.126C246.024 241.568 250.495 240.191 255.107 238.995C259.835 237.664 264.695 236.388 269.685 235.167C267.751 224.379 265.918 214.98 264.187 206.971C262.457 198.962 260.886 192.275 259.477 186.91C257.178 193.664 254.53 201.711 251.532 211.051C248.534 220.391 245.255 231.082 241.693 243.126ZM324.648 297.769C322.247 297.929 320.707 297.715 320.029 297.125C319.468 296.401 319.136 295.344 319.034 293.954C318.904 292.186 319.091 290.396 319.593 288.585C320.212 286.64 320.663 284.134 320.946 281.069C321.356 277.995 322.806 276.121 325.296 275.447C327.904 274.639 330.598 274.142 333.379 273.957C336.033 273.78 338.137 273.893 339.691 274.298C341.235 274.575 342.114 276.167 342.327 279.073C342.577 282.484 341.789 285.583 339.961 288.37C338.26 291.15 336.012 293.394 333.216 295.104C330.411 296.687 327.555 297.576 324.648 297.769ZM432.137 311.362C428.851 311.581 427.074 309.858 426.805 306.195C426.508 302.152 426.973 297.234 428.199 291.44C429.434 285.772 430.904 279.835 432.607 273.628C434.437 267.412 435.988 261.723 437.261 256.561L436.692 256.599C431.268 267.497 424.866 276.302 417.484 283.014C410.219 289.591 402.858 293.128 395.402 293.625C391.736 293.87 387.88 293.238 383.832 291.731C379.902 290.088 376.177 287.798 372.66 284.858C369.268 281.911 366.418 278.546 364.108 274.765C361.799 270.984 360.491 267.008 360.185 262.84C359.703 256.271 360.268 249.251 361.879 241.781C363.607 234.176 366.093 226.521 369.338 218.815C372.582 211.109 376.487 203.74 381.051 196.707C385.606 189.549 390.532 183.127 395.831 177.442C401.255 171.749 406.889 167.185 412.733 163.748C418.577 160.312 424.343 158.405 430.031 158.026C432.811 157.84 435.418 158.746 437.85 160.742C440.409 162.729 442.486 165.066 444.08 167.753C445.8 170.431 446.73 172.717 446.869 174.612C447.008 176.507 446.383 177.501 444.992 177.594C444.108 177.653 442.685 177.303 440.724 176.545C438.881 175.652 436.253 175.32 432.84 175.547C427.406 175.909 421.974 178.049 416.547 181.965C411.119 185.881 405.969 190.985 401.096 197.276C396.223 203.567 391.907 210.519 388.148 218.132C384.379 225.619 381.504 233.174 379.523 240.796C377.669 248.409 376.978 255.437 377.451 261.88C377.784 266.427 379.525 270.247 382.673 273.337C385.812 276.302 389.34 277.653 393.258 277.392C397.302 277.123 401.746 275.367 406.588 272.124C411.421 268.756 416.297 264.242 421.216 258.582C426.135 252.923 430.619 246.53 434.668 239.406L434.627 238.837C431.541 240.058 428.753 241.006 426.262 241.68C423.889 242.219 421.501 242.568 419.1 242.728C415.688 242.955 412.716 242.265 410.185 240.656C407.644 238.921 406.314 237.233 406.193 235.591C406.138 234.833 406.705 233.906 407.895 232.811C409.084 231.717 411.673 230.655 415.662 229.628C419.768 228.466 425.992 227.607 434.333 227.051C439.01 226.739 442.877 228.386 445.936 231.99C448.994 235.595 450.713 239.987 451.093 245.166C451.214 246.808 450.976 249.617 450.378 253.592C449.772 257.441 448.954 261.875 447.925 266.894C446.887 271.787 445.669 276.819 444.27 281.99C442.998 287.153 441.571 291.945 439.991 296.366C438.537 300.779 437.148 304.363 435.826 307.117C434.504 309.871 433.275 311.286 432.137 311.362ZM476.778 287.631C474.377 287.791 472.837 287.576 472.159 286.987C471.598 286.263 471.266 285.206 471.164 283.816C471.035 282.048 471.221 280.258 471.723 278.447C472.342 276.502 472.793 273.996 473.076 270.931C473.486 267.857 474.936 265.983 477.427 265.309C480.034 264.501 482.729 264.004 485.509 263.818C488.163 263.642 490.267 263.755 491.821 264.159C493.365 264.437 494.244 266.029 494.457 268.935C494.707 272.345 493.919 275.445 492.091 278.232C490.39 281.012 488.142 283.256 485.346 284.966C482.541 286.549 479.685 287.437 476.778 287.631Z" fill="url(#paint1_linear_178_65)"/>
</g>
<g filter="url(#filter2_i_178_65)">
<path d="M471.828 202.305C473.708 202.123 475.534 201.648 477.111 200.915C478.747 200.211 480.201 199.366 481.475 198.397C481.619 200.048 481.401 201.432 480.851 202.583C480.376 203.623 479.528 204.607 478.355 205.428C477.233 206.191 475.87 206.783 474.347 207.162C472.658 207.589 470.901 207.883 469.158 208.018C466.661 208.254 464.14 208.23 461.738 207.95C459.479 207.675 457.415 207.05 455.75 206.128C454.055 205.19 452.671 203.928 451.597 202.324C450.523 200.72 449.894 198.709 449.656 196.314C449.531 194.557 449.658 192.777 450.069 191.008C450.473 189.152 451.33 187.309 452.621 185.568C453.887 183.864 455.762 182.334 458.058 181.083C460.407 179.792 463.422 179.003 467.129 178.679C470.218 178.408 472.63 178.478 474.335 178.889C476.041 179.3 477.334 179.852 478.218 180.58C479.04 181.243 479.589 182.018 479.806 182.874C479.989 183.681 480.131 184.334 480.175 184.838C480.292 186.176 479.931 187.538 479.11 188.835C478.316 190.112 477.119 191.303 475.594 192.311C474.018 193.377 472.172 194.274 470.168 194.975C468.026 195.722 465.724 196.256 463.343 196.535C463.869 198.992 464.917 200.616 466.486 201.407C467.965 202.135 469.862 202.477 471.828 202.305ZM472.957 185.137C472.831 183.695 472.378 182.719 471.629 182.242C470.878 181.747 470.068 181.538 469.197 181.614C468.074 181.712 467.151 182.161 466.371 182.947C465.518 183.879 464.842 184.884 464.422 185.901C463.882 187.174 463.514 188.466 463.317 189.762C463.094 191.094 463.012 192.432 463.072 193.757C464.554 193.557 465.992 193.169 467.273 192.619C468.499 192.074 469.6 191.4 470.468 190.642C471.36 189.846 472.021 188.983 472.449 188.052C472.847 187.107 473.043 186.11 472.957 185.137Z" fill="url(#paint2_linear_178_65)"/>
</g>
<g filter="url(#filter3_i_178_65)">
<path d="M488.391 192.041C489.473 204.407 480.325 215.309 467.959 216.391C455.593 217.473 444.691 208.325 443.609 195.959C442.527 183.593 451.675 172.691 464.041 171.609C476.407 170.527 487.309 179.675 488.391 192.041Z" stroke="url(#paint3_linear_178_65)" stroke-width="1.2"/>
</g>
<defs>
<filter id="filter0_i_178_65" x="-1.85425" y="316.429" width="495.913" height="58.1237" filterUnits="userSpaceOnUse" color-interpolation-filters="sRGB">
<feFlood flood-opacity="0" result="BackgroundImageFix"/>
<feBlend mode="normal" in="SourceGraphic" in2="BackgroundImageFix" result="shape"/>
<feColorMatrix in="SourceAlpha" type="matrix" values="0 0 0 0 0 0 0 0 0 0 0 0 0 0 0 0 0 0 127 0" result="hardAlpha"/>
<feOffset dx="-2" dy="-3"/>
<feGaussianBlur stdDeviation="1.5"/>
<feComposite in2="hardAlpha" operator="arithmetic" k2="-1" k3="1"/>
<feColorMatrix type="matrix" values="0 0 0 0 0 0 0 0 0 0 0 0 0 0 0 0 0 0 0.25 0"/>
<feBlend mode="normal" in2="shape" result="effect1_innerShadow_178_65"/>
</filter>
<filter id="filter1_i_178_65" x="13.0488" y="149.966" width="484.203" height="188.437" filterUnits="userSpaceOnUse" color-interpolation-filters="sRGB">
<feFlood flood-opacity="0" result="BackgroundImageFix"/>
<feBlend mode="normal" in="SourceGraphic" in2="BackgroundImageFix" result="shape"/>
<feColorMatrix in="SourceAlpha" type="matrix" values="0 0 0 0 0 0 0 0 0 0 0 0 0 0 0 0 0 0 127 0" result="hardAlpha"/>
<feOffset dx="-2" dy="-3"/>
<feGaussianBlur stdDeviation="1.5"/>
<feComposite in2="hardAlpha" operator="arithmetic" k2="-1" k3="1"/>
<feColorMatrix type="matrix" values="0 0 0 0 0 0 0 0 0 0 0 0 0 0 0 0 0 0 0.5 0"/>
<feBlend mode="normal" in2="shape" result="effect1_innerShadow_178_65"/>
</filter>
<filter id="filter2_i_178_65" x="447.61" y="175.517" width="33.9082" height="32.6616" filterUnits="userSpaceOnUse" color-interpolation-filters="sRGB">
<feFlood flood-opacity="0" result="BackgroundImageFix"/>
<feBlend mode="normal" in="SourceGraphic" in2="BackgroundImageFix" result="shape"/>
<feColorMatrix in="SourceAlpha" type="matrix" values="0 0 0 0 0 0 0 0 0 0 0 0 0 0 0 0 0 0 127 0" result="hardAlpha"/>
<feOffset dx="-2" dy="-3"/>
<feGaussianBlur stdDeviation="1.5"/>
<feComposite in2="hardAlpha" operator="arithmetic" k2="-1" k3="1"/>
<feColorMatrix type="matrix" values="0 0 0 0 0 0 0 0 0 0 0 0 0 0 0 0 0 0 0.25 0"/>
<feBlend mode="normal" in2="shape" result="effect1_innerShadow_178_65"/>
</filter>
<filter id="filter3_i_178_65" x="440.922" y="167.922" width="48.1558" height="49.1559" filterUnits="userSpaceOnUse" color-interpolation-filters="sRGB">
<feFlood flood-opacity="0" result="BackgroundImageFix"/>
<feBlend mode="normal" in="SourceGraphic" in2="BackgroundImageFix" result="shape"/>
<feColorMatrix in="SourceAlpha" type="matrix" values="0 0 0 0 0 0 0 0 0 0 0 0 0 0 0 0 0 0 127 0" result="hardAlpha"/>
<feOffset dx="-2" dy="-3"/>
<feGaussianBlur stdDeviation="1.5"/>
<feComposite in2="hardAlpha" operator="arithmetic" k2="-1" k3="1"/>
<feColorMatrix type="matrix" values="0 0 0 0 0 0 0 0 0 0 0 0 0 0 0 0 0 0 0.25 0"/>
<feBlend mode="normal" in2="shape" result="effect1_innerShadow_178_65"/>
</filter>
<linearGradient id="paint0_linear_178_65" x1="304.698" y1="348.509" x2="304.058" y2="379.528" gradientUnits="userSpaceOnUse">
<stop stop-color="#C31616"/>
<stop offset="1" stop-color="#F7F7F7"/>
</linearGradient>
<linearGradient id="paint1_linear_178_65" x1="262.753" y1="245.117" x2="272.835" y2="281.98" gradientUnits="userSpaceOnUse">
<stop stop-color="#8C8888"/>
<stop offset="1" stop-color="#C31616"/>
</linearGradient>
<linearGradient id="paint2_linear_178_65" x1="459.461" y1="170.319" x2="474.893" y2="205.894" gradientUnits="userSpaceOnUse">
<stop offset="0.402851" stop-color="#8C8888"/>
<stop offset="1" stop-color="#C31616"/>
</linearGradient>
<linearGradient id="paint3_linear_178_65" x1="472.648" y1="190.099" x2="477.263" y2="198.67" gradientUnits="userSpaceOnUse">
<stop offset="0.385508" stop-color="#F7F7F7"/>
<stop offset="1" stop-color="#C31616"/>
</linearGradient>
</defs>
</svg>
