<svg xmlns="http://www.w3.org/2000/svg">
	<symbol id="social-instagramm" viewBox="0 0 17 17">
		<path d="M8.39728 4.08057C7.25267 4.08057 6.15495 4.53526 5.34559 5.34462C4.53624 6.15397 4.08154 7.2517 4.08154 8.3963C4.08154 9.5409 4.53624 10.6386 5.34559 11.448C6.15495 12.2573 7.25267 12.712 8.39728 12.712C9.54188 12.712 10.6396 12.2573 11.449 11.448C12.2583 10.6386 12.713 9.5409 12.713 8.3963C12.713 7.2517 12.2583 6.15397 11.449 5.34462C10.6396 4.53526 9.54188 4.08057 8.39728 4.08057ZM8.39728 11.1991C7.65368 11.1991 6.94054 10.9037 6.41474 10.3779C5.88894 9.8521 5.59354 9.13896 5.59354 8.39537C5.59354 7.65177 5.88894 6.93863 6.41474 6.41283C6.94054 5.88703 7.65368 5.59163 8.39728 5.59163C9.14087 5.59163 9.85401 5.88703 10.3798 6.41283C10.9056 6.93863 11.201 7.65177 11.201 8.39537C11.201 9.13896 10.9056 9.8521 10.3798 10.3779C9.85401 10.9037 9.14087 11.1991 8.39728 11.1991Z"/>
		<path d="M12.8838 4.92791C13.4395 4.92791 13.89 4.47745 13.89 3.92178C13.89 3.36611 13.4395 2.91565 12.8838 2.91565C12.3281 2.91565 11.8777 3.36611 11.8777 3.92178C11.8777 4.47745 12.3281 4.92791 12.8838 4.92791Z"/>
		<path d="M16.3623 2.89893C16.1462 2.34097 15.816 1.83426 15.3928 1.41125C14.9697 0.988246 14.4629 0.658253 13.9048 0.4424C13.2518 0.197266 12.5619 0.0647184 11.8645 0.0503999C10.9657 0.0111999 10.6811 0 8.40187 0C6.12267 0 5.83053 -9.38773e-08 4.9392 0.0503999C4.24236 0.0639863 3.55297 0.196561 2.9008 0.4424C2.34261 0.658001 1.83565 0.987905 1.41245 1.41095C0.989244 1.83399 0.659147 2.34082 0.443333 2.89893C0.198151 3.5519 0.0659069 4.24185 0.0522667 4.9392C0.0121333 5.83707 0 6.12173 0 8.40187C0 10.6811 -6.95388e-09 10.9713 0.0522667 11.8645C0.0662667 12.5627 0.197867 13.2515 0.443333 13.9057C0.659753 14.4636 0.99017 14.9703 1.41347 15.3933C1.83678 15.8162 2.34366 16.1463 2.90173 16.3623C3.55267 16.6172 4.24235 16.7593 4.94107 16.7823C5.83987 16.8215 6.12453 16.8336 8.40374 16.8336C10.6829 16.8336 10.9751 16.8336 11.8664 16.7823C12.5637 16.7681 13.2536 16.6359 13.9067 16.3912C14.4646 16.1748 14.9713 15.8446 15.3944 15.4214C15.8175 14.9983 16.1478 14.4916 16.3641 13.9337C16.6096 13.2804 16.7412 12.5916 16.7552 11.8935C16.7953 10.9956 16.8075 10.7109 16.8075 8.4308C16.8075 6.15067 16.8075 5.86133 16.7552 4.96813C16.7443 4.26092 16.6114 3.5609 16.3623 2.89893ZM15.2255 11.7955C15.2195 12.3334 15.1213 12.8662 14.9352 13.3709C14.795 13.7339 14.5805 14.0635 14.3053 14.3385C14.0301 14.6135 13.7004 14.8279 13.3373 14.9679C12.8382 15.1531 12.311 15.2513 11.7787 15.2581C10.892 15.2992 10.6419 15.3095 8.36827 15.3095C6.0928 15.3095 5.8604 15.3095 4.95693 15.2581C4.42487 15.2516 3.8979 15.1534 3.3992 14.9679C3.03491 14.8288 2.70387 14.6148 2.4275 14.3397C2.15113 14.0646 1.93558 13.7346 1.7948 13.3709C1.61135 12.8716 1.51322 12.345 1.50453 11.8132C1.4644 10.9265 1.45507 10.6764 1.45507 8.4028C1.45507 6.12827 1.45507 5.89587 1.50453 4.99147C1.51057 4.45389 1.60875 3.92132 1.7948 3.41693C2.07947 2.68053 2.6628 2.10093 3.3992 1.81907C3.89815 1.6344 4.42496 1.53623 4.95693 1.5288C5.84453 1.48867 6.09374 1.47747 8.36827 1.47747C10.6428 1.47747 10.8761 1.47747 11.7787 1.5288C12.3111 1.5352 12.8383 1.6334 13.3373 1.81907C13.7003 1.95932 14.03 2.17392 14.3052 2.44909C14.5803 2.72427 14.7949 3.05393 14.9352 3.41693C15.1187 3.91622 15.2168 4.44282 15.2255 4.97467C15.2656 5.86227 15.2759 6.11147 15.2759 8.386C15.2759 10.6596 15.2759 10.9041 15.2357 11.7964H15.2255V11.7955Z"/>
	</symbol>
	<symbol id="social-facebook" viewBox="0 0 10 18">
		<path d="M6.50387 17.5973V9.94768H9.08454L9.46813 6.95262H6.50387V5.04488C6.50387 4.18062 6.74467 3.58888 7.98507 3.58888H9.5568V0.918618C8.79206 0.836663 8.02338 0.797091 7.25427 0.800085C4.9732 0.800085 3.40707 2.19262 3.40707 4.74902V6.94702H0.843201V9.94208H3.41267V17.5973H6.50387Z"/>
	</symbol>
	<symbol id="social-linkedin" viewBox="0 0 17 17">
		<path d="M2.04213 4.08427C3.16997 4.08427 4.08427 3.16997 4.08427 2.04213C4.08427 0.914294 3.16997 0 2.04213 0C0.914294 0 0 0.914294 0 2.04213C0 3.16997 0.914294 4.08427 2.04213 4.08427Z"/>
		<path d="M6.01256 5.63168V16.9614H9.53029V11.3586C9.53029 9.88022 9.80843 8.44848 11.6415 8.44848C13.4494 8.44848 13.4718 10.1388 13.4718 11.452V16.9624H16.9914V10.7492C16.9914 7.69715 16.3343 5.35168 12.7671 5.35168C11.0544 5.35168 9.90643 6.29155 9.43696 7.18102H9.38936V5.63168H6.01256V5.63168ZM0.280029 5.63168H3.80336V16.9614H0.280029V5.63168Z"/>
	</symbol>

	<symbol id="social-dribbble" viewBox="0 0 20 20">
		<path d="M18.2827 5.51482C17.4682 4.10337 16.2961 2.93155 14.8844 2.11749C13.4536 1.28402 11.8922 0.866821 10.2 0.866821C8.5079 0.866821 6.94643 1.28402 5.5147 2.11749C4.0839 2.95095 2.95083 4.08402 2.11737 5.51482C1.2839 6.94562 0.866699 8.50802 0.866699 10.2002C0.866699 11.8923 1.28297 13.4547 2.11737 14.8855C2.93153 16.2972 4.10374 17.469 5.51563 18.2828C6.94643 19.1163 8.5079 19.5335 10.2 19.5335C11.8922 19.5335 13.4536 19.1163 14.8854 18.2828C16.297 17.4688 17.4692 16.2969 18.2836 14.8855C19.1171 13.4547 19.5334 11.8923 19.5334 10.2002C19.5334 8.50802 19.1171 6.94562 18.2827 5.51482ZM10.2 2.41615C12.0667 2.41615 13.7206 3.01349 15.1654 4.20722C14.3067 5.30296 13.0318 6.20456 11.3387 6.91389C10.4035 5.22176 9.3899 3.80869 8.2951 2.67655C8.91558 2.50499 9.55627 2.41741 10.2 2.41615ZM4.1427 5.34682C4.82519 4.48015 5.68873 3.77301 6.67297 3.27482C7.80417 4.39575 8.84297 5.79482 9.7903 7.47482C7.92363 8.03482 5.95057 8.31482 3.87203 8.31482C3.33723 8.31482 2.9331 8.30269 2.6587 8.27749C2.94474 7.20824 3.45012 6.21021 4.1427 5.34682ZM2.41603 10.2002C2.41603 10.1498 2.41883 10.0882 2.42537 10.0135C2.4319 9.93882 2.4347 9.87722 2.4347 9.82682C2.67177 9.83989 3.03297 9.84549 3.5183 9.84549C6.00657 9.84549 8.32123 9.50296 10.4614 8.81882C10.6359 9.16696 10.817 9.55896 11.0027 9.99482C9.7707 10.2683 8.50697 10.9338 7.21243 11.9922C5.9179 13.0506 4.97337 14.164 4.37603 15.3335C3.06937 13.8523 2.41603 12.1415 2.41603 10.2002ZM10.2 17.9842C8.4323 17.9842 6.84563 17.4363 5.4391 16.3424C6.00003 15.2346 6.8615 14.1752 8.02537 13.1682C9.1883 12.1602 10.3428 11.532 11.488 11.2828C12.2104 13.2792 12.699 15.3526 12.944 17.4615C12.0694 17.8033 11.1391 17.9805 10.2 17.9842ZM16.808 14.2882C16.1971 15.2724 15.3745 16.1081 14.4 16.7344C14.176 14.7931 13.7467 12.9012 13.113 11.0588C13.9828 10.9972 14.7603 10.9655 15.4463 10.9655C16.192 10.9655 17.0199 10.9972 17.928 11.0588C17.8062 12.2067 17.4231 13.3114 16.808 14.2882ZM15.6507 9.62149C14.568 9.62149 13.5666 9.66536 12.6454 9.75216C12.4502 9.24142 12.2386 8.73715 12.0107 8.24015C13.939 7.39455 15.3072 6.36789 16.1164 5.16015C17.2364 6.47989 17.8468 7.98535 17.9458 9.67749C17.1879 9.64015 16.4226 9.62149 15.6507 9.62149Z" />
	</symbol>

	<symbol id="social-vk" viewBox="0 0 363.301 363.301">
		<path d="M347.506,240.442c-7.91-9.495-16.899-18.005-25.592-26.235c-3.091-2.927-6.287-5.953-9.368-8.962
		c-8.845-8.648-9.167-11.897-2.164-21.72c4.845-6.771,9.982-13.551,14.95-20.108c4.506-5.949,9.166-12.101,13.632-18.273l0.917-1.269
		c8.536-11.811,17.364-24.024,22.062-38.757c1.22-3.887,2.501-9.607-0.428-14.39c-2.927-4.779-8.605-6.237-12.622-6.918
		c-1.987-0.337-3.96-0.383-5.791-0.383l-55.901-0.04l-0.462-0.004c-8.452,0-14.148,3.983-17.412,12.178
		c-3.116,7.83-6.539,16.168-10.445,24.096c-7.773,15.787-17.645,33.97-31.93,49.135l-0.604,0.645
		c-1.687,1.813-3.598,3.866-4.995,3.866c-0.214,0-0.447-0.041-0.711-0.124c-2.959-1.153-4.945-8.316-4.855-11.648
		c0.001-0.046,0.002-0.092,0.002-0.138l-0.039-64.61c0-0.224-0.016-0.446-0.045-0.668c-1.422-10.503-4.572-17.041-16.474-19.372
		c-0.316-0.063-0.639-0.094-0.961-0.094h-58.126c-9.47,0-14.688,3.849-19.593,9.61c-1.324,1.54-4.08,4.746-2.714,8.635
		c1.386,3.947,5.885,4.791,7.35,5.065c7.272,1.384,11.371,5.832,12.532,13.604c2.027,13.496,2.276,27.901,0.784,45.334
		c-0.416,4.845-1.239,8.587-2.595,11.784c-0.315,0.746-1.432,3.181-2.571,3.182c-0.362,0-1.409-0.142-3.316-1.456
		c-4.509-3.089-7.808-7.497-11.654-12.942c-13.084-18.491-24.065-38.861-33.575-62.288c-3.527-8.624-10.114-13.452-18.556-13.594
		c-9.276-0.141-17.686-0.209-25.707-0.209c-8.764,0-16.889,0.081-24.823,0.246C8.914,83.74,4.216,85.776,1.744,89.676
		c-2.476,3.903-2.315,9.03,0.479,15.236c22.366,49.723,42.645,85.876,65.755,117.228c16.193,21.938,32.435,37.123,51.109,47.784
		c19.674,11.255,41.722,16.727,67.402,16.727c2.911,0,5.921-0.071,8.956-0.213c14.922-0.727,20.458-6.128,21.158-20.657
		c0.333-7.425,1.145-15.212,4.795-21.853c2.304-4.184,4.452-4.184,5.158-4.184c1.36,0,3.046,0.626,4.857,1.799
		c3.248,2.12,6.033,4.96,8.316,7.441c2.149,2.357,4.274,4.738,6.401,7.12c4.59,5.141,9.336,10.456,14.294,15.497
		c10.852,11.041,22.807,15.897,36.538,14.843h51.252c0.109,0,0.219-0.004,0.328-0.011c5.107-0.337,9.53-3.17,12.135-7.772
		c3.227-5.701,3.162-12.974-0.174-19.46C356.718,251.867,351.808,245.601,347.506,240.442z"/>
	</symbol>

	<symbol id="social-telegram" viewBox="0 0 24 24">
		<path fill-rule="evenodd" clip-rule="evenodd" d="M23.1117 4.49449C23.4296 2.94472 21.9074 1.65683 20.4317 2.227L2.3425 9.21601C0.694517 9.85273 0.621087 12.1572 2.22518 12.8975L6.1645 14.7157L8.03849 21.2746C8.13583 21.6153 8.40618 21.8791 8.74917 21.968C9.09216 22.0568 9.45658 21.9576 9.70712 21.707L12.5938 18.8203L16.6375 21.8531C17.8113 22.7334 19.5019 22.0922 19.7967 20.6549L23.1117 4.49449ZM3.0633 11.0816L21.1525 4.0926L17.8375 20.2531L13.1 16.6999C12.7019 16.4013 12.1448 16.4409 11.7929 16.7928L10.5565 18.0292L10.928 15.9861L18.2071 8.70703C18.5614 8.35278 18.5988 7.79106 18.2947 7.39293C17.9906 6.99479 17.4389 6.88312 17.0039 7.13168L6.95124 12.876L3.0633 11.0816ZM8.17695 14.4791L8.78333 16.6015L9.01614 15.321C9.05253 15.1209 9.14908 14.9366 9.29291 14.7928L11.5128 12.573L8.17695 14.4791Z"/>
	</symbol>

	<symbol id="social-github" viewBox="0 0 24 24">
		<path d="M18.6713 2.62664C18.5628 2.36483 18.3534 2.16452 18.0959 2.07627L18.094 2.07564L18.0922 2.07501L18.0884 2.07374L18.0805 2.07114L18.0636 2.06583C18.0518 2.06223 18.039 2.05856 18.0252 2.05487C17.9976 2.04749 17.966 2.04007 17.9305 2.03319C17.8593 2.01941 17.7728 2.00787 17.6708 2.00279C17.466 1.99259 17.2037 2.00858 16.8817 2.08054C16.3447 2.20053 15.6476 2.47464 14.7724 3.03631C14.7152 3.07302 14.6572 3.11096 14.5985 3.15016C14.5397 3.13561 14.4809 3.12155 14.422 3.108C12.8261 2.74083 11.1742 2.74083 9.57825 3.108C9.51933 3.12156 9.46049 3.13561 9.40173 3.15017C9.34298 3.11096 9.28499 3.07302 9.22775 3.03631C8.35163 2.47435 7.65291 2.20029 7.11455 2.08039C6.79179 2.00852 6.52891 1.99262 6.324 2.00278C6.22186 2.00784 6.13536 2.01931 6.06428 2.03299C6.0288 2.03982 5.99732 2.04717 5.96983 2.05447C5.95609 2.05812 5.94336 2.06176 5.93163 2.06531L5.91481 2.07056L5.90698 2.07311L5.9032 2.07437L5.90135 2.07499L5.89952 2.07561C5.63979 2.16397 5.42877 2.36623 5.32049 2.63061C4.91716 3.6154 4.8101 4.70134 5.00435 5.74306C5.01379 5.79367 5.02394 5.84418 5.0348 5.89458C4.99316 5.95373 4.9527 6.01368 4.91343 6.07439C4.30771 7.01089 3.98553 8.12791 4.00063 9.27493C4.00208 11.7315 4.71965 13.4139 5.9332 14.4965C6.62014 15.1093 7.41743 15.4844 8.21873 15.7208C8.31042 15.7479 8.40217 15.7731 8.49381 15.7967C8.48043 15.8432 8.46796 15.8901 8.45641 15.9373C8.40789 16.1357 8.37572 16.3394 8.36083 16.5461C8.35948 16.5648 8.35863 16.5835 8.35829 16.6022L8.32436 18.421L8.32417 18.4407C8.32417 18.4464 8.32417 18.4521 8.32417 18.4577C8.26262 18.473 8.20005 18.4843 8.13682 18.4916C7.942 18.5141 7.74467 18.4977 7.5561 18.4434C7.36752 18.3891 7.19127 18.2979 7.03752 18.1749C6.88377 18.0519 6.75553 17.8994 6.66031 17.7261L6.6505 17.7087C6.38836 17.2535 6.02627 16.8639 5.59142 16.5695C5.15656 16.275 4.6604 16.0836 4.14047 16.0099C3.59365 15.9324 3.08753 16.3128 3.01002 16.8597C2.93251 17.4065 3.31296 17.9126 3.85978 17.9901C4.07816 18.0211 4.28688 18.1015 4.47012 18.2256C4.65121 18.3482 4.80277 18.5103 4.9134 18.7C5.1346 19.0992 5.43165 19.4514 5.78801 19.7365C6.14753 20.0242 6.56032 20.2379 7.00272 20.3653C7.43348 20.4893 7.88392 20.5291 8.32949 20.4825C8.33039 20.7224 8.33103 20.9065 8.33103 21C8.33103 21.5523 8.75521 22 9.27847 22H14.7558C15.279 22 15.7032 21.5523 15.7032 21V17.2095C15.729 16.7802 15.685 16.3499 15.5738 15.9373C15.5585 15.8805 15.5419 15.824 15.5241 15.7679C15.5838 15.753 15.6435 15.7373 15.7032 15.7208C16.5277 15.4937 17.3513 15.1224 18.0588 14.4983C19.2791 13.4217 19.9982 11.7379 19.9996 9.27493C20.0147 8.12791 19.6925 7.01089 19.0868 6.07439C19.0475 6.01358 19.007 5.95354 18.9652 5.89429C18.976 5.84399 18.9861 5.79358 18.9955 5.74306C19.1893 4.69934 19.0795 3.61142 18.6713 2.62664Z"/>
	</symbol>
</svg>









